Coordinates
version=1
nRows=13
nColumns=22
inDegrees=yes

Units are S.I. units (second, meters, Newtons, ...)
If the header above contains a line with 'inDegrees', this indicates whether rotational values are in degrees (yes) or radians (no).

endheader
time	pelvis_tilt	pelvis_list	pelvis_rotation	pelvis_tx	pelvis_ty	pelvis_tz	hip_flexion_r	hip_adduction_r	hip_rotation_r	knee_angle_r	ankle_angle_r	subtalar_angle_r	hip_flexion_l	hip_adduction_l	hip_rotation_l	knee_angle_l	ankle_angle_l	subtalar_angle_l	lumbar_extension	lumbar_bending	lumbar_rotation
      0.01000000	      2.54933994	     -1.71744065	      1.10573808	      1.00890669	      0.93587807	     -0.00292399	      4.58436260	     -1.27131319	    -10.63436471	    -19.60245392	     11.19102422	      1.59776746	      4.77221148	     -4.96583849	     -9.64360104	    -21.84984769	     13.95429060	     -2.49338110	    -10.11517030	     -0.80662512	     -6.44907665
      0.02000000	      2.57452694	     -1.72040108	      1.07730231	      1.00868061	      0.93590948	     -0.00304930	      4.58918172	     -1.28027468	    -10.61636535	    -19.62806933	     11.18882768	      1.59561331	      4.76942762	     -4.95812391	     -9.64013327	    -21.87556844	     13.93441900	     -2.50524009	    -10.13783464	     -0.75589310	     -6.45086511
      0.03000000	      2.60436433	     -1.71574883	      1.03806860	      1.00842076	      0.93594115	     -0.00318388	      4.59219379	     -1.29733936	    -10.57909823	    -19.65307606	     11.18006606	      1.59195976	      4.76630144	     -4.94236075	     -9.65302083	    -21.91001982	     13.92434997	     -2.51772251	    -10.16440504	     -0.71035826	     -6.44984861
      0.04000000	      2.63950548	     -1.71029752	      0.98790220	      1.00813680	      0.93597232	     -0.00331811	      4.59601178	     -1.31624791	    -10.53220426	    -19.68433019	     11.17178734	      1.58750467	      4.75898405	     -4.92595025	     -9.67533771	    -21.94885677	     13.91907829	     -2.53236331	    -10.19608020	     -0.66445330	     -6.43359309
      0.05000000	      2.68124783	     -1.70298736	      0.90454814	      1.00787862	      0.93601397	     -0.00340946	      4.59018198	     -1.33302065	    -10.44887231	    -19.70548200	     11.16783878	      1.57874793	      4.72814121	     -4.91389590	     -9.76718152	    -21.97201255	     13.92445059	     -2.57346316	    -10.22725839	     -0.62466501	     -6.36840061
      0.06000000	      2.71479747	     -1.69749592	      0.86311099	      1.00757458	      0.93603309	     -0.00356511	      4.59780234	     -1.35548900	    -10.42250510	    -19.73991219	     11.16436794	      1.57636153	      4.72576018	     -4.89364917	     -9.76163095	    -22.01180794	     13.92211933	     -2.58090745	    -10.25441078	     -0.57870235	     -6.36393714
      0.07000000	      2.75224050	     -1.68416258	      0.79397002	      1.00729008	      0.93605569	     -0.00368125	      4.60716686	     -1.38525872	    -10.37180753	    -19.78257440	     11.16855582	      1.57372066	      4.70675336	     -4.87375349	     -9.83759645	    -22.04100004	     13.92886437	     -2.61318319	    -10.28212003	     -0.54717195	     -6.31449935
      0.08000000	      2.78112559	     -1.67748291	      0.75878761	      1.00698648	      0.93606775	     -0.00383674	      4.62042094	     -1.40899185	    -10.34864319	    -19.81897600	     11.16634923	      1.57283930	      4.70387943	     -4.85413547	     -9.84340076	    -22.06880267	     13.92541804	     -2.62051269	    -10.30264894	     -0.50644165	     -6.31286862
      0.09000000	      2.81149514	     -1.66375489	      0.72008183	      1.00668286	      0.93607844	     -0.00398544	      4.64151562	     -1.44213713	    -10.32323452	    -19.87400833	     11.16589337	      1.57339083	      4.69691773	     -4.83174185	     -9.88565553	    -22.09346750	     13.92256839	     -2.63263297	    -10.32599538	     -0.47724784	     -6.29897738
      0.10000000	      2.83197122	     -1.63161760	      0.66447549	      1.00640971	      0.93608378	     -0.00410111	      4.67169545	     -1.49338273	    -10.28009407	    -19.92488803	     11.18352960	      1.58068037	      4.68295179	     -4.79309408	     -9.97364687	    -22.09441220	     13.91235506	     -2.66089862	    -10.33380121	     -0.47623416	     -6.25156281
      0.11000000	      2.85754580	     -1.62345097	      0.64758820	      1.00611434	      0.93609564	     -0.00425735	      4.69114085	     -1.51728390	    -10.25851264	    -19.97131053	     11.18285753	      1.58166365	      4.67762742	     -4.77483194	     -9.98613845	    -22.10561566	     13.90568659	     -2.66675714	    -10.35334940	     -0.44378182	     -6.25928307
      0.12000000	      2.88430946	     -1.58671366	      0.61517753	      1.00583941	      0.93611073	     -0.00439592	      4.72032015	     -1.57608100	    -10.23405584	    -20.03958554	     11.19757647	      1.59120815	      4.66089621	     -4.73039661	    -10.05321712	    -22.10581343	     13.88696047	     -2.68600909	    -10.37283411	     -0.45197409	     -6.22842139
      0.13000000	      2.91048051	     -1.57871040	      0.60655738	      1.00555892	      0.93612954	     -0.00455123	      4.73773540	     -1.59851855	    -10.21209991	    -20.08751929	     11.19843750	      1.59314756	      4.65381290	     -4.71256774	    -10.06045715	    -22.11348691	     13.87850342	     -2.69043381	    -10.39339156	     -0.42481749	     -6.23547602
